<svg id="eqsm8kmkc2oi1" xmlns="http://www.w3.org/2000/svg" xmlns:xlink="http://www.w3.org/1999/xlink" viewBox="0 0 280 210" shape-rendering="geometricPrecision" text-rendering="geometricPrecision" width="280" height="210"><defs><filter id="eqsm8kmkc2oi15-filter" x="-400%" width="600%" y="-400%" height="600%"><feGaussianBlur id="eqsm8kmkc2oi15-filter-blur-0" stdDeviation="0,0" result="result"/></filter><radialGradient id="eqsm8kmkc2oi16-fill" cx="0" cy="0" r="0.500000" spreadMethod="pad" gradientUnits="objectBoundingBox" gradientTransform="matrix(1 0 0 1 0.50000000000000 0.50000000000000)"><stop id="eqsm8kmkc2oi16-fill-0" offset="0%" stop-color="rgb(44,70,152)"/><stop id="eqsm8kmkc2oi16-fill-1" offset="100%" stop-color="rgb(44,70,152)"/></radialGradient><linearGradient id="eqsm8kmkc2oi17-fill" x1="0" y1="0.500000" x2="1" y2="0.500000" spreadMethod="pad" gradientUnits="objectBoundingBox"><stop id="eqsm8kmkc2oi17-fill-0" offset="0%" stop-color="rgb(44,70,152)"/><stop id="eqsm8kmkc2oi17-fill-1" offset="100%" stop-color="rgb(44,70,152)"/></linearGradient><linearGradient id="eqsm8kmkc2oi19-fill" x1="-0.363430" y1="1.080469" x2="0.677563" y2="0.126971" spreadMethod="pad" gradientUnits="objectBoundingBox"><stop id="eqsm8kmkc2oi19-fill-0" offset="0%" stop-color="rgb(44,70,152)"/><stop id="eqsm8kmkc2oi19-fill-1" offset="100%" stop-color="rgb(44,70,152)"/></linearGradient><linearGradient id="eqsm8kmkc2oi20-fill" x1="-0.363430" y1="1.080469" x2="0.677563" y2="0.126971" spreadMethod="pad" gradientUnits="objectBoundingBox"><stop id="eqsm8kmkc2oi20-fill-0" offset="0%" stop-color="rgb(44,70,152)"/><stop id="eqsm8kmkc2oi20-fill-1" offset="100%" stop-color="rgb(44,70,152)"/></linearGradient><linearGradient id="eqsm8kmkc2oi21-fill" x1="-0.363430" y1="1.080469" x2="0.677563" y2="0.126971" spreadMethod="pad" gradientUnits="objectBoundingBox"><stop id="eqsm8kmkc2oi21-fill-0" offset="0%" stop-color="rgb(44,70,152)"/><stop id="eqsm8kmkc2oi21-fill-1" offset="100%" stop-color="rgb(44,70,152)"/></linearGradient><linearGradient id="eqsm8kmkc2oi22-fill" x1="-0.363430" y1="1.080469" x2="0.677563" y2="0.126971" spreadMethod="pad" gradientUnits="objectBoundingBox"><stop id="eqsm8kmkc2oi22-fill-0" offset="0%" stop-color="rgb(44,70,152)"/><stop id="eqsm8kmkc2oi22-fill-1" offset="100%" stop-color="rgb(44,70,152)"/></linearGradient></defs><g id="eqsm8kmkc2oi2"><path id="eqsm8kmkc2oi3" d="M247.486000,175.769000C248.474000,175.286000,249.279000,174.611000,249.873000,173.763000C250.504000,172.864000,250.824000,171.742000,250.824000,170.431000C250.824000,168.489000,250.136000,166.968000,248.783000,165.911000C247.451000,164.870000,245.599000,164.343000,243.283000,164.343000L235.002000,164.343000L235.002000,181.832000L239.113000,181.832000L239.113000,176.659000L243.328000,176.659000L247.262000,181.832000L251.713000,181.832000L251.713000,181.136000L247.486000,175.769000ZM245.742000,172.578000C245.150000,173.021000,244.312000,173.245000,243.254000,173.245000L239.113000,173.245000L239.113000,167.871000L243.166000,167.871000C244.262000,167.871000,245.123000,168.103000,245.723000,168.563000C246.311000,169.013000,246.594000,169.670000,246.594000,170.572000C246.594000,171.490000,246.316000,172.147000,245.742000,172.578000Z" fill="rgb(44,70,152)" stroke="none" stroke-width="1"/><polygon id="eqsm8kmkc2oi4" points="216.518000,181.832000 230.832000,181.832000 230.832000,178.304000 220.633000,178.304000 220.633000,174.794000 229.027000,174.794000 229.027000,171.465000 220.633000,171.465000 220.633000,167.871000 230.832000,167.871000 230.832000,164.343000 216.518000,164.343000" fill="rgb(44,70,152)" stroke="none" stroke-width="1"/><polygon id="eqsm8kmkc2oi5" points="197.330000,167.871000 203.123000,167.871000 203.123000,181.832000 207.232000,181.832000 207.232000,167.871000 213.002000,167.871000 213.002000,164.343000 197.330000,164.343000" fill="rgb(44,70,152)" stroke="none" stroke-width="1"/><path id="eqsm8kmkc2oi6" d="M193.369000,173.104000C192.328000,172.274000,190.676000,171.574000,188.467000,171.022000C187.785000,170.835000,187.201000,170.665000,186.733000,170.516000C186.282000,170.372000,185.917000,170.219000,185.649000,170.060000C185.399000,169.911000,185.219000,169.757000,185.112000,169.601000C185.016000,169.457000,184.967000,169.286000,184.967000,169.073000C184.967000,168.639000,185.158000,168.305000,185.553000,168.054000C185.981000,167.782000,186.668000,167.644000,187.600000,167.644000C188.301000,167.644000,188.946000,167.716000,189.516000,167.862000C190.094000,168.008000,190.586000,168.168000,190.985000,168.330000C191.460000,168.529000,191.881000,168.758000,192.239000,169.009000L192.458000,169.164000L194.671000,165.941000L194.480000,165.786000C194.070000,165.452000,193.517000,165.142000,192.839000,164.868000C192.276000,164.656000,191.560000,164.454000,190.702000,164.264000C189.839000,164.072000,188.794000,163.975000,187.600000,163.975000C185.260000,163.975000,183.467000,164.454000,182.260000,165.403000C181.033000,166.365000,180.412000,167.667000,180.412000,169.271000C180.412000,170.710000,180.971000,171.856000,182.072000,172.677000C183.131000,173.468000,184.697000,174.138000,186.732000,174.671000C187.490000,174.876000,188.119000,175.069000,188.601000,175.244000C189.074000,175.416000,189.455000,175.592000,189.734000,175.769000C189.986000,175.931000,190.160000,176.098000,190.246000,176.271000C190.334000,176.450000,190.379000,176.662000,190.379000,176.901000C190.379000,177.366000,190.186000,177.740000,189.787000,178.047000C189.373000,178.366000,188.646000,178.528000,187.629000,178.528000C186.926000,178.528000,186.262000,178.446000,185.658000,178.283000C185.039000,178.118000,184.494000,177.932000,184.033000,177.729000C183.500000,177.509000,182.998000,177.244000,182.543000,176.935000L182.334000,176.792000L180.080000,179.796000L180.273000,179.958000C180.779000,180.387000,181.408000,180.770000,182.140000,181.101000C182.759000,181.369000,183.535000,181.622000,184.443000,181.849000C185.357000,182.079000,186.459000,182.198000,187.716000,182.198000C188.941000,182.198000,190.023000,182.051000,190.933000,181.761000C191.847000,181.468000,192.613000,181.068000,193.212000,180.566000C193.812000,180.061000,194.263000,179.457000,194.556000,178.771000C194.845000,178.090000,194.992000,177.356000,194.992000,176.589000C194.992000,175.139000,194.445000,173.965000,193.369000,173.104000Z" fill="rgb(44,70,152)" stroke="none" stroke-width="1"/><rect id="eqsm8kmkc2oi7" width="4.111000" height="17.489000" rx="0" ry="0" transform="matrix(1 0 0 1 171.98400000000001 164.34299999999999)" fill="rgb(44,70,152)" stroke="none" stroke-width="1"/><path id="eqsm8kmkc2oi8" d="M158.559000,174.794000L163.643000,174.794000C163.620000,175.284000,163.504000,175.750000,163.301000,176.182000C163.090000,176.628000,162.799000,177.024000,162.432000,177.357000C162.067000,177.688000,161.612000,177.950000,161.077000,178.136000C160.534000,178.324000,159.917000,178.417000,159.239000,178.417000C158.430000,178.417000,157.688000,178.282000,157.034000,178.014000C156.380000,177.746000,155.813000,177.370000,155.348000,176.900000C154.881000,176.428000,154.514000,175.864000,154.254000,175.220000C153.990000,174.577000,153.858000,173.860000,153.858000,173.087000C153.858000,172.316000,153.991000,171.597000,154.254000,170.954000C154.512000,170.314000,154.883000,169.756000,155.358000,169.293000C155.837000,168.829000,156.409000,168.457000,157.063000,168.190000C157.717000,167.920000,158.463000,167.785000,159.268000,167.785000C159.934000,167.785000,160.547000,167.858000,161.092000,168.002000C161.647000,168.148000,162.119000,168.314000,162.502000,168.498000C162.953000,168.696000,163.354000,168.931000,163.688000,169.197000L163.895000,169.361000L166.315000,166.365000L166.137000,166.197000C165.705000,165.785000,165.158000,165.410000,164.504000,165.077000C163.955000,164.806000,163.250000,164.553000,162.400000,164.324000C161.543000,164.092000,160.509000,163.975000,159.330000,163.975000C157.844000,163.975000,156.482000,164.213000,155.283000,164.685000C154.082000,165.159000,153.051000,165.815000,152.220000,166.638000C151.390000,167.459000,150.743000,168.436000,150.298000,169.537000C149.853000,170.638000,149.628000,171.833000,149.628000,173.086000C149.628000,174.341000,149.853000,175.533000,150.298000,176.634000C150.743000,177.737000,151.390000,178.713000,152.220000,179.536000C153.050000,180.356000,154.072000,181.015000,155.251000,181.486000C156.431000,181.959000,157.782000,182.199000,159.267000,182.199000C160.673000,182.199000,161.937000,181.983000,163.019000,181.558000C164.105000,181.131000,165.025000,180.520000,165.761000,179.741000C166.493000,178.964000,167.050000,178.022000,167.415000,176.945000C167.778000,175.877000,167.962000,174.682000,167.962000,173.396000L167.962000,171.463000L158.558000,171.463000L158.558000,174.794000Z" fill="rgb(44,70,152)" stroke="none" stroke-width="1"/><polygon id="eqsm8kmkc2oi9" points="132.625000,181.832000 146.938000,181.832000 146.938000,178.304000 136.736000,178.304000 136.736000,174.794000 145.133000,174.794000 145.133000,171.465000 136.736000,171.465000 136.736000,167.871000 146.938000,167.871000 146.938000,164.343000 132.625000,164.343000" fill="rgb(44,70,152)" stroke="none" stroke-width="1"/><path id="eqsm8kmkc2oi10" d="M126.974000,173.763000C127.601000,172.864000,127.923000,171.742000,127.923000,170.431000C127.923000,168.489000,127.237000,166.968000,125.884000,165.911000C124.550000,164.870000,122.698000,164.343000,120.382000,164.343000L112.103000,164.343000L112.103000,181.832000L116.214000,181.832000L116.214000,176.659000L120.428000,176.659000L124.361000,181.832000L128.811000,181.832000L128.811000,181.136000L124.585000,175.769000C125.574000,175.285000,126.377000,174.610000,126.974000,173.763000ZM122.839000,172.578000C122.249000,173.021000,121.411000,173.245000,120.353000,173.245000L116.213000,173.245000L116.213000,167.871000L120.263000,167.871000C121.360000,167.871000,122.222000,168.103000,122.823000,168.563000C123.409000,169.013000,123.695000,169.670000,123.695000,170.572000C123.694000,171.490000,123.415000,172.147000,122.839000,172.578000Z" fill="rgb(44,70,152)" stroke="none" stroke-width="1"/><path id="eqsm8kmkc2oi11" d="M99.235000,164.233000L96.196000,164.233000L85.868000,175.328000L85.868000,178.279000L94.927000,178.279000L94.927000,181.937000L99.205000,181.937000L99.205000,178.279000L101.477000,178.279000L101.477000,174.619000L99.205000,174.619000L99.235000,164.233000ZM94.928000,174.619000L91.505000,174.619000L91.505000,174.148000C91.603000,174.087000,91.692000,174.020000,91.771000,173.940000C91.849000,173.882000,91.928000,173.824000,92.007000,173.763000C92.085000,173.704000,92.164000,173.635000,92.243000,173.557000L94.928000,170.577000L94.928000,174.619000Z" fill="rgb(44,70,152)" stroke="none" stroke-width="1"/><polygon id="eqsm8kmkc2oi12" points="76.131000,169.604000 75.511000,170.961000 75.334000,170.961000 74.714000,169.604000 71.646000,164.233000 66.719000,164.233000 73.239000,175.150000 73.239000,181.938000 77.518000,181.938000 77.518000,175.181000 84.127000,164.233000 79.200000,164.233000" fill="rgb(44,70,152)" stroke="none" stroke-width="1"/><polygon id="eqsm8kmkc2oi13" points="50.401000,181.938000 64.476000,181.938000 64.476000,178.249000 54.679000,178.249000 54.679000,174.768000 62.469000,174.768000 62.469000,171.403000 54.679000,171.403000 54.679000,167.922000 64.476000,167.922000 64.476000,164.233000 50.401000,164.233000" fill="rgb(44,70,152)" stroke="none" stroke-width="1"/><path id="eqsm8kmkc2oi14" d="M34.379000,171.846000L34.379000,164.234000L30.100000,164.234000L30.100000,181.938000L34.379000,181.938000L34.379000,177.807000L37.034000,174.975000C37.801000,176.155000,38.564000,177.321000,39.321000,178.472000C40.078000,179.621000,40.850000,180.779000,41.637000,181.938000L46.831000,181.938000L46.831000,181.526000L40.014000,171.846000L46.831000,164.617000L46.831000,164.234000L41.608000,164.234000L34.379000,171.846000Z" fill="rgb(44,70,152)" stroke="none" stroke-width="1"/></g><g id="eqsm8kmkc2oi15" transform="matrix(1.00300389929180 0 0 1.00300389929180 -0.42421817873654 -0.24041719967984)" opacity="0.9166666666666666" filter="url(#eqsm8kmkc2oi15-filter)"><path id="eqsm8kmkc2oi16" d="M181.631000,107.989000L181.631000,93.963000C183.633000,92.757000,185.307000,91.755000,186.391000,91.119000L186.391000,82.616000C185.670000,83.032000,183.860000,84.123000,181.631000,85.475000L181.631000,60.417000C179.979000,61.371000,178.414000,62.274000,176.885000,63.155000C176.213000,63.519000,175.069000,64.213000,174.696000,64.418000C174.120000,64.734000,173.776000,65.567000,173.524000,66.170000C169.436000,75.936000,165.403000,85.725000,161.251000,95.464000C160.304000,97.690000,159.442000,99.886000,159.423000,102.252000L159.407000,102.269000L159.413000,107.357000L159.962000,107.030000C160.462000,106.737000,161.060000,106.382000,161.737000,105.976000L161.944000,105.854000C165.520000,103.716000,171.161000,100.295000,176.257000,97.210000L176.257000,111.111000C178.100000,110.040000,179.844000,109.028000,181.631000,107.989000ZM167.807000,93.843000C167.953000,93.410000,167.998000,93.239000,168.067000,93.076000C169.381000,89.889000,173.946000,78.632000,176.256000,73.305000L176.256000,88.744000C172.508000,91.023000,168.934000,93.195000,167.807000,93.843000Z" fill="url(#eqsm8kmkc2oi16-fill)" stroke="none" stroke-width="1"/><path id="eqsm8kmkc2oi17" d="M155.607000,76.017000C152.470000,83.353000,149.353000,90.699000,146.240000,98.048000C145.045000,100.868000,143.869000,103.698000,142.670000,106.563000C146.900000,112.153000,151.117000,117.721000,155.354000,123.320000C157.649000,121.979000,159.864000,120.686000,162.182000,119.331000C157.924000,113.714000,153.770000,108.229000,149.565000,102.682000C153.930000,92.304000,158.294000,81.935000,162.758000,71.319000C160.465000,72.638000,158.428000,73.780000,156.426000,74.986000C156.070000,75.199000,155.775000,75.623000,155.607000,76.017000Z" fill="url(#eqsm8kmkc2oi17-fill)" stroke="none" stroke-width="1"/><g id="eqsm8kmkc2oi18"><path id="eqsm8kmkc2oi19" d="M138.025000,133.387000L138.025000,78.308000C154.098000,69.038000,170.078000,59.824000,186.186000,50.536000C184.041000,49.308000,182.053000,48.172000,180.045000,47.024000C163.975000,56.299000,148.004000,65.513000,132.103000,74.691000L132.103000,130.306000C134.013000,131.401000,135.875000,132.466000,137.738000,133.533000C137.833000,133.483000,137.930000,133.435000,138.025000,133.387000Z" fill="url(#eqsm8kmkc2oi19-fill)" stroke="none" stroke-width="1"/><path id="eqsm8kmkc2oi20" d="M120.067000,67.704000L120.067000,123.268000C122.001000,124.375000,123.914000,125.467000,126.062000,126.696000L126.062000,71.314000C142.141000,62.037000,158.108000,52.825000,174.184000,43.550000C172.270000,42.431000,170.461000,41.340000,168.612000,40.328000C168.313000,40.165000,167.805000,40.285000,167.428000,40.391000C167.067000,40.491000,166.744000,40.736000,166.412000,40.929000C152.926000,48.710000,139.440000,56.492000,125.954000,64.277000C123.995000,65.409000,122.042000,66.554000,120.067000,67.704000Z" fill="url(#eqsm8kmkc2oi20-fill)" stroke="none" stroke-width="1"/><path id="eqsm8kmkc2oi21" d="M114.128000,119.423000L114.128000,64.266000C130.203000,54.987000,146.117000,45.803000,162.193000,36.524000C160.021000,35.272000,158.066000,34.144000,156.060000,32.987000C140.045000,42.226000,124.043000,51.458000,108.052000,60.684000L108.052000,116.226000C109.954000,117.325000,111.874000,118.431000,113.793000,119.538000C113.904000,119.501000,114.016000,119.462000,114.128000,119.423000Z" fill="url(#eqsm8kmkc2oi21-fill)" stroke="none" stroke-width="1"/><path id="eqsm8kmkc2oi22" d="M146.141000,27.144000C144.739000,26.384000,143.346000,26.265000,141.901000,27.207000C140.523000,28.111000,139.039000,28.854000,137.608000,29.680000C125.125000,36.881000,112.643000,44.083000,100.163000,51.291000C98.772000,52.094000,97.388000,52.911000,96.054000,53.690000L96.054000,109.215000C98.024000,110.350000,99.975000,111.473000,102.120000,112.706000L102.120000,57.246000C118.175000,47.984000,134.130000,38.776000,150.169000,29.522000C148.725000,28.665000,147.457000,27.856000,146.141000,27.144000Z" fill="url(#eqsm8kmkc2oi22-fill)" stroke="none" stroke-width="1"/></g></g></svg>